<?xml version="1.0" standalone="no"?>
<!DOCTYPE svg PUBLIC "-//W3C//DTD SVG 20010904//EN"
 "http://www.w3.org/TR/2001/REC-SVG-20010904/DTD/svg10.dtd">
<svg version="1.0" xmlns="http://www.w3.org/2000/svg"
 width="673.000000pt" height="673.000000pt" viewBox="0 0 673.000000 673.000000"
 preserveAspectRatio="xMidYMid meet">
<metadata>
Created by potrace 1.11, written by Peter Selinger 2001-2013
</metadata>
<g transform="translate(0.000000,673.000000) scale(0.100000,-0.100000)"
fill="#000000" stroke="none">
<path d="M10 4701 l0 -348 490 -491 490 -491 -183 -179 c-100 -99 -243 -239
-317 -312 -74 -72 -215 -211 -313 -308 l-177 -176 0 -353 0 -353 357 0 356 0
488 489 488 489 305 -306 c167 -169 385 -389 484 -489 l181 -183 727 0 727 0
59 63 c33 34 132 138 221 231 184 191 217 226 441 460 88 93 174 181 190 196
l28 27 488 -488 488 -489 351 0 351 0 0 351 0 350 -490 489 -489 490 489 489
490 490 0 351 0 350 -351 0 -350 0 -1330 -1330 -1329 -1329 -243 242 c-133
134 -353 354 -489 490 l-247 247 490 490 489 489 210 -210 210 -210 350 351
351 350 -210 210 -210 210 -701 0 -701 0 -490 -490 -489 -489 -490 489 -489
490 -351 0 -350 0 0 -349z"/>
</g>
</svg>
